<svg width="224px" height="69px" viewBox="0 0 224 69" version="1.1" xmlns="http://www.w3.org/2000/svg" xmlns:xlink="http://www.w3.org/1999/xlink">
    <g id="Logos" stroke="none" stroke-width="1" fill="none" fill-rule="evenodd">
        <g id="VALIC-White-logo">
            <g id="Registration-symbol" transform="translate(212.000000, 55.000000)">
                <circle id="Oval" stroke="#FFFFFF" cx="5" cy="5" r="5"></circle>
                <path d="M4.38454366,5.48307683 L4.38454366,7.65999985 L3.30000305,7.65999985 L3.30000305,2 L4.8183599,2 C6.55362488,2 6.770533,3.08846151 6.770533,3.74153841 C6.770533,4.61230762 6.33671676,5.04769223 5.46908427,5.26538453 L7.42125737,7.65999985 L6.11980863,7.65999985 L4.38454366,5.48307683 Z M5.60145178,3.54163933 C5.60145178,2.88856242 4.95072742,2.67087012 4.51691117,2.67087012 L4.30000305,2.67087012 L4.30000305,4.41240854 C5.38454366,4.41240854 5.60145178,4.19471624 5.60145178,3.54163933 Z" id="Shape" fill="#FFFFFF"></path>
            </g>
            <path d="M144.417427,3.48484848 L153.744477,3.48484848 L153.744477,64.469697 L144.417427,64.469697 L144.417427,3.48484848 Z M209.706772,17.8598485 C202.98262,11.7613636 196.692285,11.1079545 193.221755,11.1079545 C179.990359,11.1079545 171.097126,20.9090909 171.097126,34.4128788 C171.097126,47.2632576 180.424176,57.282197 193.221755,57.282197 C200.596631,57.282197 206.236242,53.5795455 209.706772,50.3125 L209.706772,61.4204545 C203.633345,65.1231061 197.126101,65.9943182 193.004847,65.9943182 C181.942533,65.9943182 175.001473,60.9848485 171.530943,57.5 C164.372975,50.7481061 161.770077,43.125 161.770077,34.4128788 C161.770077,23.0871212 166.325148,15.4640152 171.530943,10.4545455 C177.821278,4.57386364 185.196154,2.39583333 193.438663,2.39583333 C199.078274,2.39583333 204.284069,3.48484848 209.706772,6.75189394 L209.706772,17.8598485 L209.706772,17.8598485 Z M117.954637,3.48484848 L117.954637,55.7575758 L135.741103,55.7575758 L135.741103,64.6875 L108.627587,64.6875 L108.627587,3.48484848 L117.954637,3.48484848 Z M44.4227833,3.48484848 L27.5039498,46.1742424 L10.3682082,3.48484848 L0.390434619,3.48484848 L27.5039498,68.6079545 L54.4005569,3.48484848 L44.4227833,3.48484848 Z" id="Combined-Shape" fill="#FFFFFF"></path>
            <path d="M72.1870229,0 L41.8198859,64.6875 L51.7976595,64.6875 L58.5218113,49.8768939 L84.5507859,49.8768939 L90.8411214,64.6875 L100.818895,64.6875 L72.1870229,0 Z M71.7532067,20.4734848 L80.8633478,41.1647727 L62.4261574,41.1647727 L71.7532067,20.4734848 Z" id="Shape" fill="#FFFFFF"></path>
        </g>
    </g>
</svg>
